<svg xmlns="http://www.w3.org/2000/svg" x="0px" y="0px" viewBox="0 0 19 25" style="enable-background:new 0 0 19 25;" xml:space="preserve" fill="#D8658C"><path d="M19,7.3v16.9c0,0.4-0.4,0.8-0.8,0.8h0H0.8C0.4,25,0,24.6,0,24.2l0,0V0.8C0,0.4,0.3,0,0.8,0 c0,0,0,0,0,0h11.1c0.2,0,0.4,0.1,0.6,0.2l6.3,6.5C18.9,6.9,19,7.1,19,7.3L19,7.3z M12.7,2.8v3.7h3.6l-1.8-1.9L12.7,2.8z M17.4,23.4 V8.2h-5.5c-0.4,0-0.8-0.4-0.8-0.8c0,0,0,0,0,0V1.6H1.6v21.7H17.4z M15.8,12.8c0,0.4-0.3,0.8-0.8,0.8c0,0,0,0,0,0H4 c-0.4,0-0.8-0.4-0.8-0.8c0,0,0,0,0,0c0-0.4,0.3-0.8,0.8-0.8c0,0,0,0,0,0H15C15.5,12,15.8,12.3,15.8,12.8L15.8,12.8z M15.8,16 c0,0.4-0.3,0.8-0.8,0.8c0,0,0,0,0,0H4c-0.4,0-0.8-0.4-0.8-0.8c0,0,0,0,0,0c0-0.4,0.3-0.8,0.8-0.8c0,0,0,0,0,0H15 C15.5,15.2,15.8,15.6,15.8,16L15.8,16z M11.1,19.3c0,0.4-0.3,0.8-0.8,0.8c0,0,0,0,0,0H4c-0.4,0-0.8-0.4-0.8-0.8c0,0,0,0,0,0 c0-0.4,0.3-0.8,0.8-0.8c0,0,0,0,0,0h6.3C10.7,18.5,11.1,18.8,11.1,19.3L11.1,19.3z"/></svg>