<svg xmlns="http://www.w3.org/2000/svg" x="0px" y="0px" viewBox="0 0 54 54" style="enable-background:new 0 0 54 54;" xml:space="preserve"><path fill="#DA7195" d="M0,27C0,12.1,12.1,0,27,0s27,12.1,27,27S41.9,54,27,54S0,41.9,0,27z"/><path fill="#FFFFFF" d="M30.9,28.7c-1.1,1.1-1.1,2.2-2.2,2.2c-1.1,0-2.2-1.1-3.3-2.2c-1.1-1.1-2.2-2.2-2.2-3.3 c0-1.1,1.1-1.1,2.2-2.2c1.1-1.1-2.2-4.4-3.3-4.4c-1.1,0-3.3,3.3-3.3,3.3c0,2.2,2.3,6.7,4.4,8.9c2.2,2.2,6.7,4.4,8.9,4.4 c0,0,3.3-2.2,3.3-3.3C35.3,30.9,32,27.6,30.9,28.7L30.9,28.7z"/></svg>