<svg xmlns="http://www.w3.org/2000/svg" xmlns:xlink="http://www.w3.org/1999/xlink" width="52" height="52" viewBox="0 0 52 52"><defs><path id="yokxa" d="M65.23 803h.54a7.15 7.15 0 0 0 7.23-7.03v-6.94a7.15 7.15 0 0 0-7.23-7.03h-.54a7.15 7.15 0 0 0-7.23 7.03v6.94a7.14 7.14 0 0 0 7.23 7.03z"/><path id="yokxb" d="M65.94 765.94a25.98 25.98 0 0 1 25.94 26.03A25.98 25.98 0 0 1 65.94 818 25.98 25.98 0 0 1 40 791.97a25.98 25.98 0 0 1 25.94-26.03z"/><path id="yokxd" d="M65.5 794.12c.92 0 1.67.72 1.67 1.61 0 .9-.75 1.62-1.67 1.62-.92 0-1.67-.73-1.67-1.62 0-.9.75-1.61 1.67-1.61z"/><clipPath id="yokxc"><use fill="#fff" xlink:href="#yokxa"/></clipPath></defs><g><g transform="translate(-40 -766)"><use fill="#fff" xlink:href="#yokxb"/></g><g transform="translate(-40 -766)"><use fill="#fff" fill-opacity="0" stroke="#e3779c" stroke-miterlimit="50" stroke-width="4" clip-path="url(&quot;#yokxc&quot;)" xlink:href="#yokxa"/></g><g transform="translate(-40 -766)"><use fill="#e3779c" xlink:href="#yokxd"/></g></g></svg>