<svg xmlns="http://www.w3.org/2000/svg" xmlns:xlink="http://www.w3.org/1999/xlink" width="52" height="52" viewBox="0 0 52 52"><defs><path id="w1ela" d="M65.94 11836.94a25.98 25.98 0 0 1 25.94 26.03 25.98 25.98 0 0 1-25.94 26.03 25.98 25.98 0 0 1-25.94-26.03 25.98 25.98 0 0 1 25.94-26.03z"/><path id="w1elb" d="M65.23 11853h.54a7.14 7.14 0 0 1 7.23 7.03v6.94a7.15 7.15 0 0 1-7.23 7.03h-.54a7.15 7.15 0 0 1-7.23-7.03v-6.94a7.14 7.14 0 0 1 7.23-7.03z"/><path id="w1ele" d="M65.5 11861.88c.92 0 1.67-.72 1.67-1.61 0-.9-.75-1.62-1.67-1.62-.92 0-1.67.73-1.67 1.62 0 .9.75 1.61 1.67 1.61z"/><clipPath id="w1elc"><use fill="#fff" xlink:href="#w1ela"/></clipPath><clipPath id="w1eld"><use fill="#fff" xlink:href="#w1elb"/></clipPath></defs><g><g opacity=".1" transform="translate(-40 -11837)"><use fill="#fff" fill-opacity="0" stroke="#000" stroke-miterlimit="50" stroke-width="2" clip-path="url(&quot;#w1elc&quot;)" xlink:href="#w1ela"/></g><g transform="translate(-40 -11837)"><use fill="#fff" fill-opacity="0" stroke="#e3779c" stroke-miterlimit="50" stroke-width="4" clip-path="url(&quot;#w1eld&quot;)" xlink:href="#w1elb"/></g><g transform="translate(-40 -11837)"><use fill="#e3779c" xlink:href="#w1ele"/></g></g></svg>