<svg xmlns="http://www.w3.org/2000/svg" x="0px" y="0px" viewBox="0 0 30 30" style="enable-background:new 0 0 30 30;" xml:space="preserve" fill="#D8658C"><path d="M30,30h-2.3c0-7-5.7-12.7-12.7-12.7C8,17.3,2.3,23,2.3,30H0c0-4,1.6-7.8,4.4-10.6 c1.6-1.6,3.6-2.8,5.7-3.6c-4-2.7-5-8.1-2.3-12.1c2.7-4,8.1-5,12.1-2.3s5,8.1,2.3,12.1c-0.6,0.9-1.4,1.6-2.3,2.3 c2.1,0.7,4.1,1.9,5.7,3.6C28.4,22.2,30,26,30,30z M21.3,8.7c0.1-3.5-2.6-6.4-6.1-6.6C11.7,2,8.8,4.7,8.7,8.2c0,0.2,0,0.3,0,0.5 c0.1,3.5,3.1,6.2,6.6,6.1C18.6,14.6,21.2,12,21.3,8.7z"/></svg>