<svg xmlns="http://www.w3.org/2000/svg" x="0px" y="0px" viewBox="0 0 61 61" style="enable-background:new 0 0 61 61;" xml:space="preserve"><path fill="#FFFFFF" d="M30.5,0C47.3,0,61,13.7,61,30.5S47.3,61,30.5,61S0,47.3,0,30.5S13.7,0,30.5,0z"/><path fill="#D8658C" d="M48,30.5C48,40.2,40.2,48,30.5,48S13,40.2,13,30.5S20.8,13,30.5,13S48,20.8,48,30.5z M41.3,26.4 c-0.1-1.5-1-3.3-2.8-3.4c-5-0.3-10.9-0.4-16,0c-1.6,0.2-2.7,2.1-2.8,3.5c-0.3,3.1-0.3,4.8,0,7.9c0.1,1.5,1.2,3.4,2.8,3.6 c5.1,0.3,11,0.4,16,0c1.6-0.3,2.7-2.1,2.8-3.6C41.5,31.4,41.5,29.4,41.3,26.4z M28.3,26.1l6.6,4.4l-6.6,4.4V26.1z"/></svg>